<?xml version="1.0" encoding="utf-8"?>
<!-- Generator: Adobe Illustrator 21.0.1, SVG Export Plug-In . SVG Version: 6.00 Build 0)  -->
<svg version="1.1" id="Layer_1" xmlns="http://www.w3.org/2000/svg" xmlns:xlink="http://www.w3.org/1999/xlink" x="0px" y="0px"
	 viewBox="0 0 28 28" style="enable-background:new 0 0 28 28;" xml:space="preserve">
<style type="text/css">
	.st0{fill:#00A5DC;}
</style>
<title>ic_slyce_button</title>
<desc>Created with Sketch.</desc>
<g id="studio_space_datasets_detail_browse_json" transform="translate(-22.000000, -5.000000)">
	<g id="mini_bar">
		<g id="Group" transform="translate(22.000000, 5.000000)">
			<g id="ic_slyce_mark">
				<g>
					<path id="path-1" class="st0" d="M14,26C7.4,26,2,20.6,2,14S7.4,2,14,2s12,5.4,12,12S20.6,26,14,26z M8,19.9
						c1.6,1.6,3.5,2.1,5.9,2.1c3.3,0,6.1-1.7,6.1-5c0-1.5-0.3-2.6-1.2-3.4c-0.7-0.7-1.7-1.1-3.1-1.3L13.9,12
						c-0.6-0.1-0.9-0.3-1.1-0.5c-0.2-0.2-0.3-0.5-0.3-0.7c0-0.7,0.6-1.5,1.9-1.5c0.7,0,2-0.1,3,0.9l2.4-2.4c-1.3-1.3-3-1.9-5.3-1.9
						c-3.6,0-5.7,2.1-5.7,5c0,1.3,0.4,2.4,1.1,3.2c0.7,0.7,1.8,1.2,3.1,1.4l1.9,0.3c0.5,0.1,0.8,0.2,1,0.4c0.2,0.2,0.3,0.6,0.3,0.9
						c0,0.9-0.7,1.4-2.2,1.4c-1.3,0-2.7-0.3-3.5-1.1L8,19.9z"/>
				</g>
			</g>
		</g>
	</g>
</g>
</svg>
